<svg width="512" height="512" viewBox="0 0 512 512" style="color:#ffffff" xmlns="http://www.w3.org/2000/svg" class="h-full w-full"><rect width="512" height="512" x="0" y="0" rx="30" fill="transparent" stroke="transparent" stroke-width="0" stroke-opacity="100%" paint-order="stroke"></rect><svg width="512px" height="512px" viewBox="0 0 24 24" fill="#ffffff" x="0" y="0" role="img" style="display:inline-block;vertical-align:middle" xmlns="http://www.w3.org/2000/svg"><g fill="#ffffff"><path fill="currentColor" d="M19 7c-1.1 0-2 .9-2 2v2c0 1.1.9 2 2 2h2v2h-4v2h4c1.1 0 2-.9 2-2v-2c0-1.1-.9-2-2-2h-2V9h4V7h-4M9 7v10h4c1.1 0 2-.9 2-2V9c0-1.1-.9-2-2-2H9m2 2h2v6h-2V9M3 7c-1.1 0-2 .9-2 2v8h2v-4h2v4h2V9c0-1.1-.9-2-2-2H3m0 2h2v2H3V9Z"/></g></svg></svg>