<?xml version="1.0" standalone="no"?>
<!DOCTYPE svg PUBLIC "-//W3C//DTD SVG 20010904//EN"
 "http://www.w3.org/TR/2001/REC-SVG-20010904/DTD/svg10.dtd">
<svg version="1.0" xmlns="http://www.w3.org/2000/svg"
 width="1563.000000pt" height="1563.000000pt" viewBox="0 0 1563.000000 1563.000000"
 preserveAspectRatio="xMidYMid meet">

<g transform="translate(0.000000,1563.000000) scale(0.100000,-0.100000)"
fill="#000000" stroke="none">
<path d="M4549 9595 c-57 -31 -157 -35 -911 -35 -456 0 -758 -4 -758 -9 0 -5
15 -15 34 -21 49 -16 102 -79 120 -142 30 -105 36 -237 36 -865 l0 -633 -825
0 -825 0 0 44 0 44 253 5 c231 4 260 7 352 31 194 50 378 160 482 286 64 77
125 198 150 295 25 104 22 323 -6 430 -62 236 -217 400 -452 480 -146 50 -212
55 -766 55 -282 0 -513 -3 -513 -7 0 -5 22 -18 49 -29 37 -17 55 -33 76 -69
59 -99 58 -97 62 -862 l4 -702 -145 -3 c-154 -3 -181 -11 -160 -46 10 -15 32
-17 159 -20 l147 -3 -5 -247 c-5 -266 -14 -326 -63 -409 -18 -31 -38 -48 -74
-65 -28 -13 -50 -26 -50 -30 0 -5 155 -8 345 -8 190 0 345 3 345 8 0 4 -22 17
-50 30 -36 17 -56 34 -74 65 -49 82 -58 143 -63 410 l-5 247 826 0 826 0 0
-177 c0 -193 -12 -328 -36 -411 -18 -63 -71 -126 -120 -142 -19 -6 -34 -16
-34 -20 0 -5 326 -10 748 -12 695 -3 750 -4 792 -21 25 -10 52 -21 60 -23 13
-4 33 52 104 278 107 341 100 318 89 318 -5 0 -25 -29 -46 -64 -133 -232 -335
-356 -647 -396 -47 -6 -202 -12 -345 -13 l-260 -2 -3 343 -2 342 815 0 815 0
0 -177 c0 -193 -12 -328 -36 -411 -18 -63 -71 -126 -120 -142 -19 -6 -34 -16
-34 -21 0 -5 141 -9 345 -9 190 0 345 3 345 8 0 4 -23 17 -49 28 -59 26 -93
73 -116 159 -15 54 -33 327 -35 508 l0 57 314 0 314 0 81 -241 c97 -288 138
-376 206 -444 68 -69 94 -75 319 -75 179 0 186 1 186 20 0 14 -7 20 -23 20
-44 0 -127 51 -168 102 -63 80 -102 158 -198 396 l-90 222 988 0 987 0 32 -52
c52 -88 65 -134 66 -238 1 -88 -1 -100 -32 -162 -58 -119 -184 -210 -359 -260
-113 -32 -324 -32 -437 0 -228 66 -406 225 -525 471 -21 44 -44 94 -49 111 -6
16 -18 30 -26 30 -14 0 -16 -30 -16 -239 l0 -239 38 -30 c84 -67 249 -134 408
-166 258 -52 519 -45 711 19 345 116 549 374 530 671 l-5 84 204 0 204 0 0
-82 c-1 -164 -19 -424 -35 -483 -23 -86 -57 -133 -116 -159 -26 -11 -49 -24
-49 -28 0 -5 321 -8 713 -8 715 0 816 -4 865 -36 13 -8 28 -14 34 -12 11 4
198 590 191 598 -6 6 -18 -10 -82 -110 -125 -196 -324 -310 -606 -349 -43 -6
-198 -14 -346 -18 l-269 -6 0 346 0 347 815 0 815 0 0 -118 c0 -194 45 -326
151 -445 171 -192 520 -285 869 -232 421 63 640 301 640 695 l0 100 869 0 870
0 21 -29 c89 -127 108 -307 44 -434 -56 -109 -204 -211 -369 -253 -97 -25
-313 -25 -410 0 -164 42 -318 146 -421 283 -60 79 -141 226 -164 296 -8 26
-17 37 -31 37 -18 0 -19 -10 -19 -239 l0 -239 33 -24 c131 -101 340 -170 589
-197 260 -29 481 4 672 100 259 129 397 332 397 581 0 54 -2 102 -6 108 -3 6
32 10 91 12 79 2 99 6 108 20 20 32 -8 43 -118 46 l-103 4 -12 34 c-21 59
-108 179 -174 241 -118 110 -250 193 -637 397 -302 160 -441 271 -501 400
-104 223 10 445 276 533 72 24 95 27 230 27 139 1 155 -1 223 -26 112 -42 188
-93 293 -197 87 -86 185 -218 220 -294 7 -15 16 -27 21 -27 4 0 7 114 6 253
l-3 252 -95 32 c-331 111 -762 122 -1033 28 -206 -72 -358 -229 -402 -416 -51
-218 36 -447 235 -618 114 -99 178 -139 530 -331 210 -114 334 -193 405 -254
l40 -35 -837 -1 -838 0 0 624 c0 648 6 788 40 885 23 63 69 116 117 132 18 6
33 15 33 20 0 5 -141 9 -345 9 -321 0 -400 -6 -314 -25 17 -4 48 -24 69 -45
88 -88 99 -209 100 -1042 l0 -558 -530 0 -530 0 0 633 c0 628 6 760 36 865 18
63 71 126 120 142 19 6 34 16 34 21 0 5 -141 9 -345 9 -318 0 -393 -6 -317
-25 43 -11 88 -51 112 -100 47 -98 51 -155 57 -872 l5 -673 -816 0 -816 0 0
286 0 286 283 -5 c219 -3 296 -8 346 -21 71 -18 155 -57 187 -87 11 -10 23
-19 27 -19 4 0 7 77 7 170 0 94 -3 170 -6 170 -3 0 -20 -11 -37 -24 -47 -35
-104 -61 -177 -81 -53 -14 -119 -19 -347 -22 l-283 -5 0 477 0 477 388 -5
c312 -3 397 -7 441 -20 184 -54 308 -187 350 -377 19 -83 22 -90 32 -90 5 0 9
123 9 305 0 168 -4 305 -8 305 -5 0 -23 -7 -40 -15 -17 -9 -57 -20 -89 -25
-33 -6 -386 -10 -820 -10 -440 0 -763 -4 -763 -9 0 -5 12 -12 28 -16 43 -11
88 -51 112 -100 47 -98 51 -155 57 -872 l5 -673 -214 0 -215 0 -36 73 c-20 39
-60 99 -89 133 -125 144 -252 230 -645 438 -289 152 -377 210 -474 313 -85 89
-112 148 -117 258 -3 75 0 100 18 147 63 169 273 278 532 278 114 0 187 -18
293 -70 148 -72 292 -215 395 -392 29 -48 56 -88 61 -88 5 0 9 111 9 250 l0
250 -37 15 c-199 83 -595 133 -838 107 -354 -39 -584 -197 -659 -451 -21 -70
-21 -215 0 -295 25 -97 81 -193 163 -279 118 -123 234 -202 551 -372 265 -142
409 -233 464 -294 l19 -21 -964 0 -964 0 -49 98 c-98 197 -199 329 -317 411
l-67 48 112 11 c156 16 254 43 373 102 158 78 265 198 303 339 30 112 6 283
-53 384 -64 109 -218 206 -394 249 -84 20 -117 22 -700 25 -399 3 -613 1 -613
-6 0 -5 15 -15 34 -21 49 -16 102 -79 120 -142 30 -105 36 -237 36 -865 l0
-633 -815 0 -815 0 0 285 0 285 253 0 c268 -1 355 -10 460 -50 32 -12 73 -35
92 -51 18 -16 38 -29 44 -29 8 0 11 51 11 170 0 113 -4 170 -11 170 -5 0 -27
-14 -48 -30 -93 -76 -229 -100 -552 -100 l-239 0 0 476 0 476 383 -5 c314 -3
392 -7 440 -20 188 -54 308 -186 355 -392 9 -41 20 -75 24 -75 5 0 8 137 8
305 0 168 -3 305 -7 305 -5 -1 -20 -7 -34 -15z m-2669 -130 c313 -71 500 -324
501 -676 1 -372 -201 -648 -523 -713 -53 -11 -133 -16 -258 -16 l-180 0 0 717
0 716 193 -6 c126 -3 218 -11 267 -22z m4044 0 c231 -66 346 -217 346 -455 0
-247 -129 -411 -375 -475 -46 -12 -118 -15 -327 -15 l-268 0 0 486 0 486 283
-5 c225 -4 294 -8 341 -22z m-369 -1044 c65 -32 149 -119 203 -209 38 -65 118
-240 136 -299 l7 -23 -300 0 -301 0 0 281 0 281 103 -4 c83 -2 111 -7 152 -27z
m6691 -731 c-12 -225 -60 -353 -173 -462 -100 -95 -210 -138 -352 -138 -242 0
-423 133 -497 363 -21 67 -27 108 -31 225 l-6 142 533 0 533 0 -7 -130z"/>
<path d="M6575 6541 c-37 -16 -60 -51 -60 -93 0 -33 6 -45 33 -69 36 -33 94
-39 128 -15 28 21 11 30 -28 16 -73 -27 -135 49 -91 109 22 29 69 39 102 22
29 -16 36 4 9 23 -24 17 -61 20 -93 7z"/>
<path d="M6738 6544 c-5 -4 -8 -49 -8 -101 0 -76 3 -93 15 -93 10 0 15 10 15
30 0 27 3 30 29 30 21 0 37 -9 54 -31 13 -17 30 -30 36 -28 9 3 5 14 -9 32
l-22 28 21 23 c27 28 27 67 1 91 -21 19 -119 33 -132 19z m110 -36 c7 -7 12
-22 12 -35 0 -25 -31 -43 -76 -43 -22 0 -24 4 -24 45 l0 45 38 0 c21 0 43 -5
50 -12z"/>
<path d="M6940 6450 l0 -100 70 0 c84 0 94 18 13 22 -57 3 -58 3 -58 33 0 29
2 30 48 33 26 2 47 7 47 12 0 5 -21 10 -47 12 -44 3 -48 5 -51 30 -3 26 -2 27
53 30 79 4 74 22 -7 26 l-68 3 0 -101z"/>
<path d="M7183 6538 c-10 -14 -83 -174 -83 -183 0 -3 6 -5 14 -5 8 0 17 11 20
25 6 23 11 25 61 25 50 0 56 -3 65 -25 5 -14 16 -25 24 -25 13 0 12 7 -3 43
-74 166 -77 172 -98 145z m42 -80 l15 -38 -40 0 c-22 0 -40 2 -40 5 0 2 7 23
16 45 18 45 25 43 49 -12z"/>
<path d="M7300 6535 c0 -10 11 -15 35 -15 l35 0 0 -85 c0 -69 3 -85 15 -85 12
0 15 16 15 85 l0 85 30 0 c20 0 30 5 30 15 0 12 -16 15 -80 15 -64 0 -80 -3
-80 -15z"/>
<path d="M7497 6543 c-4 -3 -7 -48 -7 -100 0 -76 3 -93 15 -93 12 0 15 18 15
100 0 92 -5 112 -23 93z"/>
<path d="M7564 6527 c12 -50 76 -177 89 -177 8 0 30 39 51 86 50 116 50 114
36 114 -6 0 -29 -37 -50 -82 -36 -78 -39 -81 -48 -58 -34 83 -63 140 -73 140
-7 0 -9 -9 -5 -23z"/>
<path d="M7787 6543 c-4 -3 -7 -48 -7 -100 l0 -93 70 0 c40 0 70 4 70 10 0 6
-25 10 -55 10 l-55 0 0 35 0 35 50 0 c28 0 50 5 50 10 0 6 -22 10 -50 10 -49
0 -50 1 -50 30 0 30 1 30 55 30 42 0 55 3 55 15 0 12 -14 15 -63 15 -35 0 -67
-3 -70 -7z"/>
<path d="M8063 6540 c-27 -11 -40 -54 -23 -75 6 -7 34 -21 61 -30 51 -17 60
-33 33 -56 -12 -10 -25 -10 -57 -2 -48 13 -61 8 -33 -13 29 -21 92 -18 116 6
37 37 23 64 -46 88 -36 13 -49 23 -49 37 0 17 8 20 45 22 66 2 67 2 46 18 -22
17 -59 18 -93 5z"/>
<path d="M8190 6535 c0 -10 11 -15 35 -15 l35 0 0 -85 c0 -69 3 -85 15 -85 12
0 15 16 15 85 l0 85 30 0 c20 0 30 5 30 15 0 12 -16 15 -80 15 -64 0 -80 -3
-80 -15z"/>
<path d="M8384 6535 c-4 -9 -4 -45 -2 -82 3 -54 8 -69 27 -84 33 -27 86 -24
116 6 22 21 25 33 25 100 0 60 -3 75 -15 75 -12 0 -15 -15 -15 -74 0 -66 -3
-77 -22 -90 -30 -21 -44 -20 -68 4 -16 16 -20 33 -20 90 0 66 -12 91 -26 55z"/>
<path d="M8607 6543 c-4 -3 -7 -49 -7 -101 l0 -94 71 4 c63 3 74 7 95 31 26
30 32 84 13 119 -6 11 -26 26 -44 34 -35 14 -116 19 -128 7z m131 -39 c16 -11
22 -25 22 -53 0 -49 -25 -71 -81 -74 l-44 -2 -3 73 -3 72 43 0 c24 0 54 -7 66
-16z"/>
<path d="M8840 6450 c0 -60 4 -100 10 -100 6 0 10 40 10 100 0 60 -4 100 -10
100 -6 0 -10 -40 -10 -100z"/>
<path d="M8961 6537 c-57 -33 -68 -112 -22 -158 72 -72 200 -3 176 94 -15 58
-101 94 -154 64z m108 -43 c26 -33 27 -65 4 -93 -45 -54 -133 -24 -133 45 0
71 86 103 129 48z"/>
</g>
</svg>
