<svg width="512" height="512" viewBox="0 0 512 512" style="color:#ffffff" xmlns="http://www.w3.org/2000/svg" class="h-full w-full"><rect width="512" height="512" x="0" y="0" rx="30" fill="transparent" stroke="transparent" stroke-width="0" stroke-opacity="100%" paint-order="stroke"></rect><svg width="512px" height="512px" viewBox="0 0 24 24" fill="#ffffff" x="0" y="0" role="img" style="display:inline-block;vertical-align:middle" xmlns="http://www.w3.org/2000/svg"><g fill="#ffffff"><g fill="none" stroke="currentColor" stroke-linecap="round" stroke-linejoin="round" stroke-width="2"><path d="m6.233 5.834l.445-2.226A2 2 0 0 1 8.64 2h6.72a2 2 0 0 1 1.962 1.608l.445 2.226a1.879 1.879 0 0 0 1.387 1.454A3.758 3.758 0 0 1 22 10.934V18a4 4 0 0 1-4 4H6a4 4 0 0 1-4-4v-7.066a3.758 3.758 0 0 1 2.846-3.646a1.879 1.879 0 0 0 1.387-1.454Z"/><circle cx="12" cy="14" r="4"/><path d="M11 6h2"/></g></g></svg></svg>